{"title":"The Planet of the Apes(1968)MP-4[DaScubaDude]","uid":12754771,"size":1124316664,"categoryP":"video","categoryS":"movies","magnet":"?xt=urn:btih:97e402551f4425eded070950e98df7859c66078c&amp;dn=The+Planet+of+the+Apes%281968%29MP-4%5BDaScubaDude%5D&amp;tr=udp%3A%2F%2Ftracker.leechers-paradise.org%3A6969&amp;tr=udp%3A%2F%2Fzer0day.ch%3A1337&amp;tr=udp%3A%2F%2Fopen.demonii.com%3A1337&amp;tr=udp%3A%2F%2Ftracker.coppersurfer.tk%3A6969&amp;tr=udp%3A%2F%2Fexodus.desync.com%3A6969","seeders":1,"leechers":0,"uploader":"dascuba","files":1,"time":1447432032,"description":"Planet of the Apes (1968)\r\nG  |  112 min  |  Adventure, Sci-Fi  |  3 April 1968 (USA)\r\n8.0 Your rating:   -/10   Ratings: 8.0/10 from 130,002 users   \r\nReviews: 399 user | 199 critic\r\nAn astronaut crew crash lands on a planet in the distant future where intelligent talking apes are the dominant species, and humans are the oppressed and enslaved.\r\n\r\nDirector: Franklin J. Schaffner\r\nWriters: Michael Wilson (screenplay), Rod Serling (screenplay), 1 more credit »\r\nStars: Charlton Heston, Roddy McDowall, Kim Hunter\r\n\r\nGeneral\r\nComplete name                            : C:Planet of the ApesPLANET_APES_SE_DISC1_169_Title1.mp4\r\nFormat                                   : MPEG-4\r\nFormat profile                           : Base Media\r\nCodec ID                                 : isom\r\nFile size                                : 1.05 GiB\r\nDuration                                 : 1h 51mn\r\nOverall bit rate                         : 1 339 Kbps\r\nMovie name                               : PLANET_APES_SE_DISC1_169\r\nGenre                                    : Science_Fiction\r\nWriting application                      : Lavf54.6.100\r\n\r\nVideo\r\nID                                       : 1\r\nFormat                                   : AVC\r\nFormat/Info                              : Advanced Video Codec\r\nFormat profile                           :   \r\nFormat settings, CABAC                   : No\r\nFormat settings, ReFrames                : 6 frames\r\nFormat settings, GOP                     : M=1, N=60\r\nCodec ID                                 : avc1\r\nCodec ID/Info                            : Advanced Video Coding\r\nDuration                                 : 1h 51mn\r\nBit rate                                 : 1 204 Kbps\r\nWidth                                    : 720 pixels\r\nHeight                                   : 404 pixels\r\nDisplay aspect ratio                     : 16:9\r\nFrame rate mode                          : Constant\r\nFrame rate                               : 29.970 fps\r\nColor space                              : YUV\r\nChroma subsampling                       : 4:2:0\r\nBit depth                                : 8 bits\r\nScan type                                : Progressive\r\nBits/(Pixel*Frame)                       : 0.138\r\nStream size                              : 964 MiB (90%)\r\n\r\nAudio\r\nID                                       : 2\r\nFormat                                   : AAC\r\nFormat/Info                              : Advanced Audio Codec\r\nFormat profile                           : LC\r\nCodec ID                                 : 40\r\nDuration                                 : 1h 51mn\r\nBit rate mode                            : Constant\r\nBit rate                                 : 128 Kbps\r\nChannel(s)                               : 2 channels\r\nChannel positions                        : Front: L R\r\nSampling rate                            : 44.1 KHz\r\nCompression mode                         : Lossy\r\nStream size                              : 102 MiB (10%)","torrent":{"xt":"urn:btih:97e402551f4425eded070950e98df7859c66078c","amp;dn":"The+Planet+of+the+Apes%281968%29MP-4%5BDaScubaDude%5D","amp;tr":["udp%3A%2F%2Ftracker.leechers-paradise.org%3A6969","udp%3A%2F%2Fzer0day.ch%3A1337","udp%3A%2F%2Fopen.demonii.com%3A1337","udp%3A%2F%2Ftracker.coppersurfer.tk%3A6969","udp%3A%2F%2Fexodus.desync.com%3A6969"],"infoHash":"97e402551f4425eded070950e98df7859c66078c","infoHashBuffer":{"type":"Buffer","data":[151,228,2,85,31,68,37,237,237,7,9,80,233,141,247,133,156,102,7,140]},"announce":[],"urlList":[]}}